<?xml version="1.0" standalone="no"?>
<!DOCTYPE svg PUBLIC "-//W3C//DTD SVG 20010904//EN"
 "http://www.w3.org/TR/2001/REC-SVG-20010904/DTD/svg10.dtd">
<svg version="1.0" xmlns="http://www.w3.org/2000/svg"
 width="640.000000pt" height="640.000000pt" viewBox="0 0 640.000000 640.000000"
 preserveAspectRatio="xMidYMid meet">

<g transform="translate(0.000000,640.000000) scale(0.100000,-0.100000)"
fill="#000000" stroke="none">
<path d="M1625 3889 c-44 -11 -115 -36 -157 -56 l-77 -36 36 -66 c20 -36 37
-67 38 -69 1 -1 32 11 68 27 36 16 78 32 94 34 15 3 56 10 91 17 169 34 346
-31 421 -154 24 -39 44 -129 39 -179 l-3 -38 -40 34 c-199 170 -553 150 -733
-42 -113 -120 -148 -303 -91 -474 26 -76 55 -121 116 -179 97 -90 214 -131
368 -131 143 0 265 44 339 122 17 17 33 31 38 31 4 0 8 -32 8 -70 l0 -71 78 3
77 3 3 448 c3 539 1 552 -100 684 -52 69 -140 126 -239 158 -102 32 -253 34
-374 4z m239 -529 c90 -13 153 -49 225 -126 109 -116 119 -230 32 -358 -113
-164 -419 -195 -571 -59 -72 64 -105 138 -105 233 1 66 5 83 35 139 53 98 120
144 255 174 33 8 57 7 129 -3z"/>
<path d="M4327 3889 c-74 -18 -227 -81 -227 -94 0 -8 39 -84 57 -111 l14 -22
68 28 c187 76 355 78 489 5 63 -34 83 -55 121 -129 26 -49 31 -69 31 -128 l0
-69 -47 39 c-63 53 -121 80 -202 98 -241 51 -491 -48 -589 -234 -16 -31 -38
-94 -47 -140 -17 -79 -17 -87 -1 -165 23 -108 55 -170 124 -240 97 -99 214
-147 366 -151 131 -4 267 41 351 117 l40 36 5 -67 5 -67 78 -3 77 -3 1 403 c2
478 2 484 -18 571 -25 113 -115 226 -223 282 -132 67 -311 84 -473 44z m242
-529 c128 -21 236 -102 288 -217 21 -45 25 -66 21 -121 -3 -59 -9 -75 -43
-127 -77 -114 -203 -171 -360 -163 -142 8 -247 73 -298 187 -16 35 -21 66 -21
131 0 101 22 156 87 219 49 48 92 71 167 87 70 16 82 16 159 4z"/>
<path d="M5697 3886 c-66 -28 -118 -65 -149 -106 -12 -16 -25 -27 -30 -24 -4
3 -8 34 -8 70 l0 64 -80 0 -80 0 0 -650 0 -650 79 0 80 0 3 423 4 422 27 82
c36 108 89 176 166 211 82 38 150 40 236 7 39 -14 77 -29 85 -31 10 -3 26 14
50 52 33 55 33 57 14 71 -10 9 -48 29 -84 46 -55 26 -79 31 -160 34 -83 3
-102 1 -153 -21z"/>
<path d="M316 3853 c-3 -21 -6 -55 -6 -75 l0 -38 254 0 c140 0 257 -4 260 -9
3 -5 -24 -69 -61 -142 -115 -233 -473 -983 -473 -991 0 -4 171 -8 380 -8 l380
0 11 27 c5 15 9 50 7 77 l-3 51 -262 3 c-145 1 -263 4 -263 6 0 5 264 553 409
849 72 147 131 272 131 277 0 6 -141 10 -379 10 l-378 0 -7 -37z"/>
<path d="M2650 3240 l0 -650 220 0 c122 0 264 5 318 11 277 30 456 165 538
404 25 73 28 93 28 230 1 130 -2 160 -23 225 -45 145 -114 244 -219 313 -150
101 -234 117 -593 117 l-269 0 0 -650z m519 490 c125 -11 204 -44 282 -117 91
-85 137 -191 146 -338 17 -266 -143 -481 -382 -515 -38 -5 -145 -10 -237 -10
l-168 0 0 495 0 495 128 0 c70 -1 174 -5 231 -10z"/>
</g>
</svg>
